<?xml version="1.0" encoding="utf-8"?>
<svg id="svg2" width="260.03751" height="77.987503" viewBox="0 0 260.03751 77.987503" xmlns="http://www.w3.org/2000/svg">
  <path id="path14" style="fill-rule: nonzero; stroke: none; fill: rgb(188, 190, 192);" d="M 15.201 41.669 L 0 41.669 L 0 44.552 L 15.096 44.552 C 15.096 44.554 15.096 44.556 15.096 44.557 L 26.434 44.557 C 26.434 27.662 39.113 13.663 55.663 11.188 L 55.663 -0.001 C 33.796 2.442 16.612 19.952 15.201 41.669"/>
  <path id="path16" style="fill-rule: nonzero; stroke: none; fill: rgb(255, 255, 255);" d="M 26.328 44.496 C 26.328 61.034 38.637 75.386 54.961 77.878 L 55.681 77.988 L 55.681 68.199 L 55.183 68.096 C 44.064 65.792 35.994 55.866 35.994 44.496 C 35.994 33.126 44.064 23.2 55.183 20.896 L 55.681 20.793 L 55.681 11.004 L 54.961 11.114 C 38.637 13.606 26.328 27.957 26.328 44.496"/>
  <path id="path18" style="fill-rule: nonzero; stroke: none; fill: rgb(255, 255, 255);" d="M 73.499 17.172 C 69.942 17.172 66.368 18.389 62.877 20.789 L 62.606 20.975 L 62.606 25.501 L 64.39 25.501 L 64.528 25.065 C 64.923 23.823 67.232 21.1 71.523 21.1 C 75.931 21.1 78.359 23.528 78.359 27.938 C 78.359 30.373 77.417 30.722 72.126 31.593 C 66.065 32.562 59.799 33.561 59.799 41.396 C 59.799 42.315 59.941 43.206 60.221 44.044 L 60.363 44.47 L 67.512 44.47 L 66.989 43.539 C 66.518 42.702 66.279 41.68 66.279 40.502 C 66.279 35.709 71.165 34.83 75.474 34.054 C 75.866 33.984 76.248 33.915 76.619 33.844 L 78.105 33.548 L 78.105 42.096 C 78.105 42.479 78.092 43.84 78.092 43.84 L 78.086 44.47 L 84.453 44.47 L 84.456 28.511 C 84.456 21.093 80.667 17.172 73.499 17.172"/>
  <path id="path20" style="fill-rule: nonzero; stroke: none; fill: rgb(255, 255, 255);" d="M 110.427 17.172 C 107.761 17.172 105.121 18.896 102.697 22.245 L 102.697 17.511 L 102.031 17.555 C 101.657 17.58 101.311 17.614 100.979 17.648 C 99.894 17.756 98.855 17.736 97.842 17.633 C 97.566 17.605 97.292 17.577 97.018 17.556 L 96.345 17.505 L 96.345 44.47 L 102.697 44.47 L 102.697 32.148 C 102.697 28.847 102.8 26.862 104.901 24.46 C 105.744 23.506 107.323 23.078 108.514 23.078 C 109.044 23.078 109.578 23.329 110.142 23.594 C 110.53 23.776 110.931 23.965 111.351 24.077 L 112.015 24.255 L 113.101 17.741 L 112.659 17.544 C 111.954 17.231 111.331 17.172 110.427 17.172"/>
  <path id="path22" style="fill-rule: nonzero; stroke: none; fill: rgb(255, 255, 255);" d="M 145.693 0.236 C 144.605 0.344 143.56 0.324 142.546 0.221 C 142.271 0.193 141.999 0.166 141.726 0.145 L 141.054 0.094 L 141.054 21.929 C 138.653 18.808 135.441 17.172 131.666 17.172 C 123.357 17.172 117.328 24.14 117.328 33.742 C 117.328 37.944 118.219 41.458 119.976 44.184 L 120.161 44.47 L 127.36 44.47 L 126.608 43.47 C 125.071 41.427 124.19 38.207 124.19 34.635 C 124.19 25.358 127.011 21.037 133.069 21.037 C 138.963 21.037 141.054 27.263 141.054 32.594 C 141.054 34.722 140.764 40.041 138.073 43.459 L 137.278 44.47 L 147.406 44.47 L 147.406 0.101 L 146.74 0.145 C 146.366 0.17 146.023 0.204 145.693 0.236"/>
  <path id="path24" style="fill-rule: nonzero; stroke: none; fill: rgb(255, 255, 255);" d="M 169.741 17.172 C 166.185 17.172 162.61 18.389 159.119 20.789 L 158.849 20.975 L 158.849 25.501 L 160.633 25.501 L 160.771 25.065 C 161.166 23.823 163.475 21.1 167.765 21.1 C 172.174 21.1 174.603 23.528 174.603 27.938 C 174.603 30.373 173.66 30.722 168.368 31.593 C 162.309 32.562 156.043 33.561 156.043 41.396 C 156.043 42.315 156.184 43.206 156.464 44.044 L 156.606 44.47 L 163.756 44.47 L 163.231 43.539 C 162.76 42.702 162.523 41.68 162.523 40.502 C 162.523 35.709 167.408 34.83 171.718 34.054 C 172.109 33.984 172.49 33.915 172.863 33.844 L 174.348 33.548 L 174.348 42.096 C 174.348 42.479 174.336 43.84 174.336 43.84 L 174.331 44.47 L 180.696 44.47 L 180.7 28.511 C 180.7 21.093 176.91 17.172 169.741 17.172"/>
  <path id="path26" style="fill-rule: nonzero; stroke: none; fill: rgb(255, 255, 255);" d="M 208.456 17.172 C 204.509 17.172 201.211 18.803 198.813 21.917 L 198.813 17.511 L 198.146 17.555 C 197.771 17.58 197.425 17.615 197.094 17.648 C 196.009 17.756 194.969 17.736 193.958 17.633 C 193.681 17.605 193.408 17.577 193.133 17.556 L 192.46 17.505 L 192.46 44.47 L 198.813 44.47 L 198.813 33.869 C 198.813 25.14 200.98 21.739 206.543 21.739 C 211.9 21.739 212.998 25.721 212.998 31.701 L 212.998 44.47 L 219.349 44.47 L 219.349 30.234 C 219.349 21.2 215.99 17.172 208.456 17.172"/>
  <path id="path28" style="fill-rule: nonzero; stroke: none; fill: rgb(255, 255, 255);" d="M 244.619 17.172 C 234.87 17.172 227.794 23.9 227.795 33.132 C 227.543 37.401 228.708 41.243 231.164 44.241 L 231.351 44.47 L 238.145 44.47 L 237.354 43.46 C 235.614 41.237 234.656 37.922 234.656 34.125 C 234.656 29.998 235.62 20.398 244.556 20.398 C 250.92 20.398 253.179 27.208 253.179 33.04 C 253.179 35.946 252.348 40.421 250.005 43.465 L 249.231 44.47 L 256.06 44.47 L 256.246 44.246 C 258.694 41.315 260.041 37.448 260.041 33.359 C 260.041 23.677 253.844 17.172 244.619 17.172"/>
</svg>